<svg width="16" height="16" enable-background="new" version="1.1" xmlns="http://www.w3.org/2000/svg" xmlns:osb="http://www.openswatchbook.org/uri/2009/osb">
<title>Pop Symbolic Icon Theme</title>
<defs>
<filter color-interpolation-filters="sRGB">
<feBlend in2="BackgroundImage" mode="darken"/>
</filter>
</defs>
<g transform="translate(-925 575)" fill="#dfdfdf">
<path d="m929-574c-0.554 0-1 0.446-1 1v1h-2c-0.554 0-1 0.446-1 1v8c0 0.554 0.446 1 1 1h2v1c0 0.554 0.446 1 1 1s1-0.446 1-1v-1h2v1c0 0.554 0.446 1 1 1s1-0.446 1-1v-1h2v1c0 0.554 0.446 1 1 1s1-0.446 1-1v-1h2c0.554 0 1-0.446 1-1v-8c0-0.554-0.446-1-1-1h-2v-1c0-0.554-0.446-1-1-1s-1 0.446-1 1v1h-2v-1c0-0.554-0.446-1-1-1s-1 0.446-1 1v1h-2v-1c0-0.554-0.446-1-1-1zm-2 4h12v1a2 2 0 0 0-2 2 2 2 0 0 0 2 2v1h-12z" enable-background="new" fill="#dfdfdf"/>
</g>
</svg>
