<svg width="16" height="16" version="1.1" xmlns="http://www.w3.org/2000/svg">
<g fill="#dfdfdf">
<path d="m7.83 4.25c1.11-1.18 1.15-1.25 3.8-3.25-1.04-0.62-2.26-0.96-3.3-1h-0.44c-2.11 0.03-4.94 0.8-4.9 3.28 0.05 2.59 2.92 1.66 3.16 2.72m-0.16-4.47c0.83 0 1.5 0.68 1.5 1.5 0 0.83-0.67 1.5-1.5 1.5s-1.5-0.67-1.5-1.5c0-0.82 0.67-1.5 1.5-1.5zm7.27 0.67c-1.42 2.23-2.37 3.55-3.37 4.58-0.64 0.66-1.16 1.31-1.62 1.78-0.84 0.89-1.94 1.94-3.15 3.1 0.06 1.47 0.81 2.74 3.24 3.22 3.9 0.75 8.03-1.83 7.61-7.07-0.18-2.24-1.4-4.28-2.71-5.61zm0.34 3.8c0.55 0 1 0.45 1 1s-0.45 1-1 1-1-0.45-1-1 0.45-1 1-1zm-0.62 3c0.55 0 0.99 0.45 0.99 1s-0.44 1-0.99 1-1-0.45-1-1 0.45-1 1-1zm-4.99 2c0.54 0 0.99 0.45 0.99 1s-0.45 1-0.99 1c-0.55 0-1-0.45-1-1s0.45-1 1-1zm2.99 0c0.55 0 1 0.45 1 1s-0.45 1-1 1-1-0.45-1-1 0.45-1 1-1z"/>
<path d="m0 13.5c1.55 0 1.39-1.79 2.15-2.29 0.87-0.57 1.64 0.14 1.79 0.73 0.19 0.74-0.12 1.63-1.13 1.88-1.07 0.27-2.66 0.28-2.81-0.32z"/>
<path d="m6.91 6.43c-1.87 2.07-3.72 4.68-4.91 6.63 2.97-2.29 4.91-4.16 6.14-5.47 0.24-0.24 0.53-0.56 0.85-0.92 1.21-1.33 2.93-3.44 5.05-6.67-1.8 1.3-4.21 3.3-6.12 5.34"/>
</g>
</svg>
