<svg width="16" height="16.01" enable-background="new" version="1.1" xmlns="http://www.w3.org/2000/svg" xmlns:osb="http://www.openswatchbook.org/uri/2009/osb">
<title>Pop Symbolic Icon Theme</title>
<defs>
<filter color-interpolation-filters="sRGB">
<feBlend in2="BackgroundImage" mode="darken"/>
</filter>
</defs>
<g transform="translate(-904.03 -151.99)" fill="#dfdfdf">
<path d="m908 153c-0.13125 0-0.25882 0.0149-0.38281 0.0391-0.0581 0.0112-0.11182 0.0308-0.16797 0.0469-0.0593 0.0172-0.11891 0.0323-0.17578 0.0547-0.0695 0.0271-0.13381 0.0614-0.19922 0.0957-0.0413 0.0219-0.0835 0.0417-0.12305 0.0664-0.0679 0.042-0.13124 0.0891-0.19336 0.13868-0.0275 0.0222-0.0557 0.0428-0.082 0.0664-0.0676 0.06-0.13054 0.12474-0.18945 0.19336-0.0147 0.0173-0.0288 0.0349-0.043 0.0527-0.0621 0.0776-0.1178 0.15959-0.16797 0.24609-6e-3 0.0103-0.0118 0.0208-0.0176 0.0312-0.0515 0.0926-0.0963 0.18802-0.13281 0.28906-5e-3 0.0127-7e-3 0.0262-0.0117 0.0391-0.0345 0.10206-0.0623 0.20563-0.0801 0.31445-0.01743 0.10664-0.03318 0.21442-0.03318 0.32616v11c0 0.11174 0.0158 0.21952 0.0332 0.32617 0.0178 0.10882 0.0456 0.21239 0.0801 0.31445 4e-3 0.0129 7e-3 0.0263 0.0117 0.0391 0.0365 0.10104 0.0813 0.19642 0.13281 0.28906 6e-3 0.0104 0.0116 0.0209 0.0176 0.0312 0.0502 0.0865 0.10582 0.16851 0.16797 0.24609 0.0141 0.0178 0.0283 0.0354 0.043 0.0527 0.0589 0.0686 0.12183 0.13333 0.18945 0.19336 0.0263 0.0236 0.0545 0.0442 0.082 0.0664 0.0621 0.0495 0.12548 0.0967 0.19336 0.13868 0.0395 0.0247 0.0817 0.0445 0.12305 0.0664 0.0654 0.0343 0.12974 0.0687 0.19922 0.0957 0.0569 0.0224 0.11647 0.0375 0.17578 0.0547 0.0562 0.0161 0.10988 0.0357 0.16797 0.0469 0.12397 0.02423 0.25154 0.03909 0.38279 0.03909h8c1.0905 0 1.9737-0.87386 1.9961-1.959 0.0105-1.094 5e-3 -5.4229 0-8.1309-0.0107-0.49758-0.20316-0.97455-0.54687-1.3359l-2.9688-2.9688c-0.37639-0.38693-0.89353-0.60541-1.4335-0.60542h-4.0469zm4 5c2.0122 1e-3 3.8898 1.3218 5 3-1.1102 1.6782-2.9878 2.9986-5 3-2.0117-2e-3 -3.8881-1.3222-4.998-3 1.11-1.6778 2.9864-2.998 4.998-3zm0 1c-1.1046 0-2 0.89543-2 2s0.89543 2 2 2 2-0.89543 2-2-0.89543-2-2-2z" enable-background="new" fill="#dfdfdf"/>
</g>
</svg>
