<svg width="16" height="16" enable-background="new" version="1.1" xmlns="http://www.w3.org/2000/svg" xmlns:osb="http://www.openswatchbook.org/uri/2009/osb">
<title>Pop Symbolic Icon Theme</title>
<defs>
<filter color-interpolation-filters="sRGB">
<feBlend in2="BackgroundImage" mode="darken"/>
</filter>
</defs>
<g transform="translate(-924.03 -72)" fill="#dfdfdf">
<path d="m928.03 76v5h8v-5zm1 1 3 1.5 2.998-1.5v1l-2.998 1.5-3-1.5z"/>
<path d="m926.03 73c-1.0312 0.0625-1 1-1 1v12s-0.0312 0.9375 1 1h12c1 0 1-1 1-1v-12s0-1-1-1h-6zm1 2h10v7h-3c0 1.108-0.892 2-2 2s-2-0.892-2-2h-3z" fill-rule="evenodd"/>
</g>
</svg>
