<svg width="16" height="16" enable-background="new" version="1.1" xmlns="http://www.w3.org/2000/svg" xmlns:osb="http://www.openswatchbook.org/uri/2009/osb">
<title>Pop Symbolic Icon Theme</title>
<path d="m10 7a4 4 0 0 0-3.6992 2.4824 2 2 0 0 0-1.3008-0.48242 2 2 0 0 0-2 2c-1.108 0-2 0.892-2 2s0.892 2 2 2h10c1.108 0 2-0.892 2-2 0-0.74671-0.41033-1.3888-1.0137-1.7324a4 4 0 0 0 0.01367-0.26758 4 4 0 0 0-4-4z" fill="#dfdfdf"/>
<path d="m8 1c-3.3137 0-6 2.6863-6 6 2e-3 0.89093 0.20193 1.7703 0.58594 2.5742 0.4754-0.91163 1.3172-1.5742 2.4141-1.5742 0.35964 3.4e-4 0.64856 0.23952 0.98047 0.36328 0.91421-1.3756 2.3271-2.3626 4.0195-2.3633 1.5982 0 3.0072 0.77452 3.918 1.9531 0.0527-0.31502 0.0801-0.63374 0.082-0.95312 0-3.3137-2.6863-6-6-6z" fill="#dfdfdf"/>
</svg>
