<svg xmlns="http://www.w3.org/2000/svg" width="26" height="22">
    <g id="active-center" style="opacity:1">
      <path d="M0 0h26v22H0z" fill="#a0a0a0" style="opacity:0" />
      <path d="M 8,5 V 6 H 9 V 5 Z m 1,1 v 1 h 1 V 6 Z m 1,1 v 1 h 1 V 7 Z m 1,1 v 1 h 1 V 8 Z m 1,1 v 1 1 1 h 1 1 V 11 10 9 h -1 z m 2,0 h 1 V 8 h -1 z m 1,-1 h 1 V 7 h -1 z m 1,-1 h 1 V 6 h -1 z m 1,-1 h 1 V 5 h -1 z m -3,6 v 1 h 1 v -1 z m 1,1 v 1 h 1 v -1 z m 1,1 v 1 h 1 v -1 z m 1,1 v 1 h 1 v -1 z m -5,-3 h -1 v 1 h 1 z m -1,1 h -1 v 1 h 1 z m -1,1 H 9 v 1 h 1 z M 9,15 H 8 v 1 h 1 z" style="fill:#a0a0a0"/>
      <path d="M 7,5 V 6 H 8 V 5 Z M 8,6 V 7 H 9 V 6 Z m 1,1 v 1 h 1 V 7 Z m 1,1 v 1 h 1 V 8 Z m 1,1 v 1 h 1 V 9 Z m 7,-4 v 1 h 1 V 5 Z m 0,1 h -1 v 1 h 1 z m -1,1 h -1 v 1 h 1 z m -1,1 h -1 v 1 h 1 z m -1,1 h -1 v 1 h 1 z m -4,2 v 1 h 1 v -1 z m 0,1 h -1 v 1 h 1 z m -1,1 H 9 v 1 h 1 z M 9,14 H 8 v 1 H 9 Z M 8,15 H 7 v 1 h 1 z m 6,-4 v 1 h 1 v -1 z m 1,1 v 1 h 1 v -1 z m 1,1 v 1 h 1 v -1 z m 1,1 v 1 h 1 v -1 z m 1,1 v 1 h 1 v -1 z" style="fill:#a0a0a0;fill-opacity:0.67" />
    </g>
    <g id="hover-center" style="opacity:1">
      <path d="M0 0h26v22H0z" fill="#a0a0a0" style="opacity:0.5"/>
      <path d="M 8,5 V 6 H 9 V 5 Z m 1,1 v 1 h 1 V 6 Z m 1,1 v 1 h 1 V 7 Z m 1,1 v 1 h 1 V 8 Z m 1,1 v 1 1 1 h 1 1 V 11 10 9 h -1 z m 2,0 h 1 V 8 h -1 z m 1,-1 h 1 V 7 h -1 z m 1,-1 h 1 V 6 h -1 z m 1,-1 h 1 V 5 h -1 z m -3,6 v 1 h 1 v -1 z m 1,1 v 1 h 1 v -1 z m 1,1 v 1 h 1 v -1 z m 1,1 v 1 h 1 v -1 z m -5,-3 h -1 v 1 h 1 z m -1,1 h -1 v 1 h 1 z m -1,1 H 9 v 1 h 1 z M 9,15 H 8 v 1 h 1 z" style="fill:#a0a0a0"/>
      <path d="M 7,5 V 6 H 8 V 5 Z M 8,6 V 7 H 9 V 6 Z m 1,1 v 1 h 1 V 7 Z m 1,1 v 1 h 1 V 8 Z m 1,1 v 1 h 1 V 9 Z m 7,-4 v 1 h 1 V 5 Z m 0,1 h -1 v 1 h 1 z m -1,1 h -1 v 1 h 1 z m -1,1 h -1 v 1 h 1 z m -1,1 h -1 v 1 h 1 z m -4,2 v 1 h 1 v -1 z m 0,1 h -1 v 1 h 1 z m -1,1 H 9 v 1 h 1 z M 9,14 H 8 v 1 H 9 Z M 8,15 H 7 v 1 h 1 z m 6,-4 v 1 h 1 v -1 z m 1,1 v 1 h 1 v -1 z m 1,1 v 1 h 1 v -1 z m 1,1 v 1 h 1 v -1 z m 1,1 v 1 h 1 v -1 z" style="fill:#a0a0a0;fill-opacity:0.67" />
    </g>
    <g id="pressed-center" style="opacity:1">
      <path d="M0 0h26v22H0z" fill="#a0a0a0" style="opacity:0.5"/>
      <path d="M 8,5 V 6 H 9 V 5 Z m 1,1 v 1 h 1 V 6 Z m 1,1 v 1 h 1 V 7 Z m 1,1 v 1 h 1 V 8 Z m 1,1 v 1 1 1 h 1 1 V 11 10 9 h -1 z m 2,0 h 1 V 8 h -1 z m 1,-1 h 1 V 7 h -1 z m 1,-1 h 1 V 6 h -1 z m 1,-1 h 1 V 5 h -1 z m -3,6 v 1 h 1 v -1 z m 1,1 v 1 h 1 v -1 z m 1,1 v 1 h 1 v -1 z m 1,1 v 1 h 1 v -1 z m -5,-3 h -1 v 1 h 1 z m -1,1 h -1 v 1 h 1 z m -1,1 H 9 v 1 h 1 z M 9,15 H 8 v 1 h 1 z" style="fill:#a0a0a0"/>
      <path d="M 7,5 V 6 H 8 V 5 Z M 8,6 V 7 H 9 V 6 Z m 1,1 v 1 h 1 V 7 Z m 1,1 v 1 h 1 V 8 Z m 1,1 v 1 h 1 V 9 Z m 7,-4 v 1 h 1 V 5 Z m 0,1 h -1 v 1 h 1 z m -1,1 h -1 v 1 h 1 z m -1,1 h -1 v 1 h 1 z m -1,1 h -1 v 1 h 1 z m -4,2 v 1 h 1 v -1 z m 0,1 h -1 v 1 h 1 z m -1,1 H 9 v 1 h 1 z M 9,14 H 8 v 1 H 9 Z M 8,15 H 7 v 1 h 1 z m 6,-4 v 1 h 1 v -1 z m 1,1 v 1 h 1 v -1 z m 1,1 v 1 h 1 v -1 z m 1,1 v 1 h 1 v -1 z m 1,1 v 1 h 1 v -1 z" style="fill:#a0a0a0;fill-opacity:0.67" />
    </g>
    <g id="inactive-center" style="opacity:1">
      <path d="M0 0h26v22H0z" fill="#a0a0a0" style="opacity:0"/>
      <path d="M 8,5 V 6 H 9 V 5 Z m 1,1 v 1 h 1 V 6 Z m 1,1 v 1 h 1 V 7 Z m 1,1 v 1 h 1 V 8 Z m 1,1 v 1 1 1 h 1 1 V 11 10 9 h -1 z m 2,0 h 1 V 8 h -1 z m 1,-1 h 1 V 7 h -1 z m 1,-1 h 1 V 6 h -1 z m 1,-1 h 1 V 5 h -1 z m -3,6 v 1 h 1 v -1 z m 1,1 v 1 h 1 v -1 z m 1,1 v 1 h 1 v -1 z m 1,1 v 1 h 1 v -1 z m -5,-3 h -1 v 1 h 1 z m -1,1 h -1 v 1 h 1 z m -1,1 H 9 v 1 h 1 z M 9,15 H 8 v 1 h 1 z" style="fill:#4d4d4d"/>
      <path d="M 7,5 V 6 H 8 V 5 Z M 8,6 V 7 H 9 V 6 Z m 1,1 v 1 h 1 V 7 Z m 1,1 v 1 h 1 V 8 Z m 1,1 v 1 h 1 V 9 Z m 7,-4 v 1 h 1 V 5 Z m 0,1 h -1 v 1 h 1 z m -1,1 h -1 v 1 h 1 z m -1,1 h -1 v 1 h 1 z m -1,1 h -1 v 1 h 1 z m -4,2 v 1 h 1 v -1 z m 0,1 h -1 v 1 h 1 z m -1,1 H 9 v 1 h 1 z M 9,14 H 8 v 1 H 9 Z M 8,15 H 7 v 1 h 1 z m 6,-4 v 1 h 1 v -1 z m 1,1 v 1 h 1 v -1 z m 1,1 v 1 h 1 v -1 z m 1,1 v 1 h 1 v -1 z m 1,1 v 1 h 1 v -1 z" style="fill:#4d4d4d;fill-opacity:0.67" />
    </g>
    <g id="deactivated-center" style="opacity:1">
      <path d="M0 0h26v22H0z" fill="#a0a0a0" style="opacity:0"/>
      <path d="M 8,5 V 6 H 9 V 5 Z m 1,1 v 1 h 1 V 6 Z m 1,1 v 1 h 1 V 7 Z m 1,1 v 1 h 1 V 8 Z m 1,1 v 1 1 1 h 1 1 V 11 10 9 h -1 z m 2,0 h 1 V 8 h -1 z m 1,-1 h 1 V 7 h -1 z m 1,-1 h 1 V 6 h -1 z m 1,-1 h 1 V 5 h -1 z m -3,6 v 1 h 1 v -1 z m 1,1 v 1 h 1 v -1 z m 1,1 v 1 h 1 v -1 z m 1,1 v 1 h 1 v -1 z m -5,-3 h -1 v 1 h 1 z m -1,1 h -1 v 1 h 1 z m -1,1 H 9 v 1 h 1 z M 9,15 H 8 v 1 h 1 z" style="fill:#4d4d4d"/>
      <path d="M 7,5 V 6 H 8 V 5 Z M 8,6 V 7 H 9 V 6 Z m 1,1 v 1 h 1 V 7 Z m 1,1 v 1 h 1 V 8 Z m 1,1 v 1 h 1 V 9 Z m 7,-4 v 1 h 1 V 5 Z m 0,1 h -1 v 1 h 1 z m -1,1 h -1 v 1 h 1 z m -1,1 h -1 v 1 h 1 z m -1,1 h -1 v 1 h 1 z m -4,2 v 1 h 1 v -1 z m 0,1 h -1 v 1 h 1 z m -1,1 H 9 v 1 h 1 z M 9,14 H 8 v 1 H 9 Z M 8,15 H 7 v 1 h 1 z m 6,-4 v 1 h 1 v -1 z m 1,1 v 1 h 1 v -1 z m 1,1 v 1 h 1 v -1 z m 1,1 v 1 h 1 v -1 z m 1,1 v 1 h 1 v -1 z" style="fill:#4d4d4d;fill-opacity:0.67" />
    </g>
</svg>
