<svg width="16" height="16" enable-background="new" version="1.1" xmlns="http://www.w3.org/2000/svg">
<title>Pop Symbolic Icon Theme</title>
<path d="m4.5 3c-2.4853 0-4.5 2.0147-4.5 4.5s2.0147 4.5 4.5 4.5c1.9047-3e-3 3.6014-1.2042 4.2363-3l3.2637-0.0039062v1 1h3v-2.0039l1 0.0039063v-3l-7.2637 0.0039062c-0.6349-1.7958-2.3316-2.9973-4.2363-3zm0 3c0.82843 0 1.5 0.67157 1.5 1.5s-0.67157 1.5-1.5 1.5-1.5-0.67157-1.5-1.5 0.67157-1.5 1.5-1.5z" fill="#dfdfdf"/>
<path d="m12.507 11.987a0.50155 0.50155 0 0 0-0.34961 0.86133l1.1426 1.1426-1.1426 1.1426a0.50155 0.50155 0 1 0 0.70898 0.70898l1.1445-1.1426 1.1426 1.1426a0.50155 0.50155 0 1 0 0.70898-0.70898l-1.1426-1.1426 1.1426-1.1426a0.50155 0.50155 0 1 0-0.70898-0.70898l-1.1426 1.1426-1.1445-1.1426a0.50155 0.50155 0 0 0-0.35938-0.15234z" color="#000000" color-rendering="auto" dominant-baseline="auto" fill="#dfdfdf" fill-rule="evenodd" image-rendering="auto" shape-rendering="auto" solid-color="#000000" style="font-feature-settings:normal;font-variant-alternates:normal;font-variant-caps:normal;font-variant-ligatures:normal;font-variant-numeric:normal;font-variant-position:normal;isolation:auto;mix-blend-mode:normal;shape-padding:0;text-decoration-color:#000000;text-decoration-line:none;text-decoration-style:solid;text-indent:0;text-orientation:mixed;text-transform:none;white-space:normal"/>
</svg>
