<svg width="24" height="24" version="1.1" xmlns="http://www.w3.org/2000/svg">
<defs>
<style id="current-color-scheme" type="text/css">.ColorScheme-Text { color:#d3dae3; } .ColorScheme-Highlight { color:#5294e2; }</style>
</defs>
<g transform="translate(0,1)" fill="#dfdfdf" opacity=".3">
<path d="m12 1.0156c-3.8661 0-7 3.143-7 7.0176 0 2.2974 1.0805 4.3044 2.7773 5.584 0.78052 0.5908 1.4277 1.3505 1.4277 2.4004l0.072266 0.98242h5.4453l0.07813-0.98242c0.06125-1.0483 0.64274-1.8097 1.4219-2.4004 1.6982-1.2796 2.7773-3.2866 2.7773-5.584 0-3.8745-3.1337-7.0176-7-7.0176zm0 1.9844c2.76 0 5 1.9232 5 4.6875 0 1.5792-0.71844 3.0319-1.9785 3.9785-1.5508 1.6271-1.7598 2.0121-2.0215 3.334h-2c-0.26003-1.3217-0.29637-1.5878-2.0215-3.334-1.2567-0.94752-1.9785-2.4-1.9785-3.9785 0-2.7643 2.2408-4.6875 5-4.6875z"/>
<path d="m9.5 18v1h5v-1z"/>
<path d="m11 20v1h2v-1z"/>
</g>
</svg>
