<svg xmlns="http://www.w3.org/2000/svg" xmlns:xlink="http://www.w3.org/1999/xlink" width="128" height="128" id="svg5048" version="1.1"><defs id="defs5050"><filter id="filter4004-4" x="0" y="0" width="1" height="1" color-interpolation-filters="sRGB"><feColorMatrix id="feColorMatrix4006-0" values="1" in="SourceGraphic" type="saturate" result="result2"/><feFlood id="feFlood4008-2" flood-color="#FAF7F7" flood-opacity="1" result="result1"/><feBlend id="feBlend4010-1" in2="result2" mode="multiply" in="result1" result="result3"/><feComposite id="feComposite4012-3" in2="SourceGraphic" operator="in" result="result4"/></filter><filter id="filter4004-44" x="0" y="0" width="1" height="1" color-interpolation-filters="sRGB"><feColorMatrix id="feColorMatrix4006-8" values="1" in="SourceGraphic" type="saturate" result="result2"/><feFlood id="feFlood4008-0" flood-color="#FAF7F7" flood-opacity="1" result="result1"/><feBlend id="feBlend4010-5" in2="result2" mode="multiply" in="result1" result="result3"/><feComposite id="feComposite4012-6" in2="SourceGraphic" operator="in" result="result4"/></filter><style id="current-color-scheme" type="text/css"></style><linearGradient gradientUnits="userSpaceOnUse" y2="529.798" x2="425.571" y1="542.798" x1="439.571" id="linearGradient4620" xlink:href="#linearGradient4460"/><linearGradient gradientUnits="userSpaceOnUse" y2="528.798" x2="427.571" y1="521.798" x1="435.571" id="linearGradient4612" xlink:href="#linearGradient4460"/><linearGradient gradientUnits="userSpaceOnUse" y2="531.798" x2="425.571" y1="529.798" x1="436.571" id="linearGradient4604" xlink:href="#linearGradient4460"/><linearGradient gradientUnits="userSpaceOnUse" y2="530.798" x2="425.571" y1="540.798" x1="419.571" id="linearGradient4594" xlink:href="#linearGradient4460"/><linearGradient gradientUnits="userSpaceOnUse" y2="528.798" x2="413.571" y1="541.798" x1="425.571" id="linearGradient4586" xlink:href="#linearGradient4460"/><linearGradient gradientUnits="userSpaceOnUse" y2="531.798" x2="406.571" y1="523.798" x1="416.571" id="linearGradient4578" xlink:href="#linearGradient4460"/><linearGradient gradientUnits="userSpaceOnUse" y2="528.798" x2="405.571" y1="544.798" x1="420.571" id="linearGradient4576" xlink:href="#linearGradient4460"/><linearGradient gradientUnits="userSpaceOnUse" y2="530.798" x2="401.571" y1="542.798" x1="396.571" id="linearGradient4568" xlink:href="#linearGradient4460"/><linearGradient gradientUnits="userSpaceOnUse" y2="528.798" x2="395.571" y1="531.798" x1="380.571" id="linearGradient4560" xlink:href="#linearGradient4460"/><linearGradient gradientUnits="userSpaceOnUse" y2="520.798" x2="391.571" y1="518.798" x1="377.571" id="linearGradient4552" xlink:href="#linearGradient4460"/><linearGradient gradientUnits="userSpaceOnUse" y2="523.602" x2="398.571" y1="528.798" x1="389.571" id="linearGradient4544" xlink:href="#linearGradient4460"/><linearGradient gradientUnits="userSpaceOnUse" y2="523.798" x2="402.571" y1="512.798" x1="414.571" id="linearGradient4536" xlink:href="#linearGradient4460"/><linearGradient gradientUnits="userSpaceOnUse" y2="520.798" x2="423.571" y1="518.798" x1="437.571" id="linearGradient4534" xlink:href="#linearGradient4460"/><linearGradient gradientUnits="userSpaceOnUse" y2="519.798" x2="420.571" y1="526.798" x1="433.571" id="linearGradient4526" xlink:href="#linearGradient4460"/><linearGradient gradientUnits="userSpaceOnUse" y2="514.798" x2="422.571" y1="521.798" x1="436.571" id="linearGradient4518" xlink:href="#linearGradient4460"/><linearGradient gradientUnits="userSpaceOnUse" y2="516.798" x2="427.571" y1="512.798" x1="436.571" id="linearGradient4510" xlink:href="#linearGradient4460"/><linearGradient gradientUnits="userSpaceOnUse" y2="520.798" x2="419.643" y1="524.798" x1="426.571" id="linearGradient4502" xlink:href="#linearGradient4460"/><linearGradient gradientUnits="userSpaceOnUse" y2="514.798" x2="409.571" y1="509.798" x1="416.571" id="linearGradient4494" xlink:href="#linearGradient4460"/><linearGradient gradientUnits="userSpaceOnUse" y2="510.798" x2="406.571" y1="522.798" x1="396.571" id="linearGradient4492" xlink:href="#linearGradient4460"/><linearGradient gradientUnits="userSpaceOnUse" y2="511.798" x2="402.571" y1="519.798" x1="389.571" id="linearGradient4484" xlink:href="#linearGradient4460"/><linearGradient gradientUnits="userSpaceOnUse" y2="505.798" x2="424.571" y1="500.798" x1="431.571" id="linearGradient4476" xlink:href="#linearGradient4460"/><linearGradient gradientUnits="userSpaceOnUse" y2="510.798" x2="420.571" y1="501.798" x1="427.571" id="linearGradient4466" xlink:href="#linearGradient4460"/><linearGradient gradientUnits="userSpaceOnUse" y2="504.798" x2="412.571" y1="513.798" x1="414.571" id="linearGradient4458" xlink:href="#linearGradient4460"/><linearGradient gradientUnits="userSpaceOnUse" y2="502.798" x2="405.571" y1="512.798" x1="404.571" id="linearGradient4450" xlink:href="#linearGradient4460"/><linearGradient gradientUnits="userSpaceOnUse" y2="510.013" x2="392.571" y1="506.798" x1="404.571" id="linearGradient4440" xlink:href="#linearGradient4460"/><linearGradient gradientUnits="userSpaceOnUse" y2="508.798" x2="391.953" y1="516.798" x1="396.571" id="linearGradient4432" xlink:href="#linearGradient4460"/><linearGradient gradientUnits="userSpaceOnUse" y2="505.798" x2="409.571" y1="535.798" x1="409.571" id="linearGradient4341" xlink:href="#linearGradient4152"/><linearGradient id="linearGradient4152"><stop offset="0" id="stop4154" stop-color="#9526d0" stop-opacity="1"/><stop offset="1" id="stop4156" stop-color="#39a9f2" stop-opacity="1"/></linearGradient><linearGradient id="linearGradient4303"><stop id="stop4305" offset="0" stop-color="#c6cdd1" stop-opacity="1"/><stop id="stop4307" offset="1" stop-color="#e0e5e7" stop-opacity="1"/></linearGradient><linearGradient gradientTransform="matrix(3.18182 0 0 3.18182 -1223.636 -1597.385)" gradientUnits="userSpaceOnUse" y2="536.798" x2="408.571" y1="547.798" x1="408.571" id="linearGradient4272" xlink:href="#linearGradient4303"/><linearGradient gradientUnits="userSpaceOnUse" y2="503.798" x2="409.571" y1="536.798" x1="409.571" id="linearGradient4250" xlink:href="#linearGradient4159" gradientTransform="matrix(3.18182 0 0 3.18182 -1223.636 -1597.385)"/><linearGradient id="linearGradient4159"><stop offset="0" id="stop4161" stop-color="#2a2c2f" stop-opacity="1"/><stop offset="1" id="stop4163" stop-color="#424649" stop-opacity="1"/></linearGradient><linearGradient id="linearGradient4460"><stop id="stop4462" offset="0" stop-color="#fff" stop-opacity="1"/><stop id="stop4464" offset="1" stop-color="#fff" stop-opacity="0"/></linearGradient></defs><g id="layer1" transform="translate(-6.13 -913.753)"><g transform="matrix(3.18182 0 0 3.18182 -1217.507 -701.24)" id="layer1-5" color="#232629" fill="#eff0f1" fill-opacity="1"><path id="path1336" d="M395.338 509.149a20.131 20.131 0 0 0-.007.013 20.131 20.131 0 0 0-9.66 17.163 20.131 20.131 0 0 0 20.132 20.131 20.131 20.131 0 0 0 17.176-9.666l-1.229-1.229a18.454 18.454 0 0 1-9.237 2.507 18.454 18.454 0 0 1-18.453-18.454 18.454 18.454 0 0 1 2.493-9.23 18.454 18.454 0 0 1 .013-.007zm-1.612 3.253a20.131 20.131 0 0 0-1.344 7.212 20.131 20.131 0 0 0 20.132 20.132 20.131 20.131 0 0 0 7.257-1.377 18.454 18.454 0 0 1-13.968 6.41 18.454 18.454 0 0 1-18.453-18.454 18.454 18.454 0 0 1 6.376-13.923z" stroke-width="1.549"/><path id="rect887-75" d="M415.869 509.549v1.677h3.847l-3.356 3.355-.491.492v1.186h6.71v-1.678h-3.846l3.355-3.355.491-.491v-1.186h-1.186z" stroke-width="1.678"/><path id="rect887-35" d="M412.514 521.292v1.677h3.846l-3.355 3.356-.491.491v1.186h6.71v-1.677h-3.846l3.355-3.356.491-.491v-1.186h-1.186z" stroke-width="1.678"/><path id="rect887-35-2" d="M402.448 512.904v1.677h3.847l-3.355 3.356-.492.491v1.186h6.71v-1.677h-3.846l3.355-3.356.492-.491v-1.186h-1.187z" stroke-width="1.678"/></g></g></svg>