<svg width="16" height="16" version="1.1" viewBox="0 0 16 16" xmlns="http://www.w3.org/2000/svg">
<defs>
<style id="current-color-scheme" type="text/css">.ColorScheme-Text { color:#444444; } .ColorScheme-Highlight { color:#5294e2; }</style>
</defs>
<g fill="#dfdfdf">
<path d="M 3.5,3 C 3.223,3 3,3.223 3,3.5 v 3 C 3,6.777 3.223,7 3.5,7 h 3 C 6.777,7 7,6.777 7,6.5 v -3 C 7,3.223 6.777,3 6.5,3 Z" stroke-width="2"/>
<path d="m3.5 9c-0.277 0-0.5 0.22299-0.5 0.49997v2.9998c0 0.27699 0.223 0.49997 0.5 0.49997h3c0.277 0 0.5-0.22299 0.5-0.49997v-2.9998c0-0.27698-0.223-0.49997-0.5-0.49997z" stroke-width="1.9999"/>
<path d="m9.5 9c-0.277 0-0.5 0.223-0.5 0.5v3c0 0.277 0.223 0.5 0.5 0.5h3c0.277 0 0.5-0.223 0.5-0.5v-3c0-0.277-0.223-0.5-0.5-0.5z" stroke-width="2"/>
<path d="m9.5 3c-0.277 0-0.5 0.223-0.5 0.5v3c0 0.277 0.223 0.5 0.5 0.5h3c0.277 0 0.5-0.223 0.5-0.5v-3c0-0.277-0.223-0.5-0.5-0.5z" stroke-width="2"/>
</g>
</svg>
