<svg width="16" height="16" version="1.1" xmlns="http://www.w3.org/2000/svg">
<defs>
<style id="current-color-scheme" type="text/css">.ColorScheme-Text { color:#444444; } .ColorScheme-Highlight { color:#4285f4; } .ColorScheme-NeutralText { color:#ff9800; } .ColorScheme-PositiveText { color:#4caf50; } .ColorScheme-NegativeText { color:#f44336; }</style>
</defs>
<path class="ColorScheme-Text" d="m8 9c-4.432 0-8 3.122-8 7h10c-1.259-1-2-2.426-2-4 0-1.063 0.362-2.1495 1-3zm0-9a4 4 0 0 0-4 4 4 4 0 0 0 4 4 4 4 0 0 0 4-4 4 4 0 0 0-4-4z" fill="#dfdfdf"/>
<path class="ColorScheme-NegativeText" d="m12.5 9a3.5 3.5 0 0 0-3.5 3.5 3.5 3.5 0 0 0 3.5 3.5 3.5 3.5 0 0 0 3.5-3.5 3.5 3.5 0 0 0-3.5-3.5zm-1.414 1.379 1.414 1.414 1.414-1.414 0.707 0.707-1.414 1.414 1.414 1.414-0.707 0.707-1.414-1.414-1.414 1.414-0.707-0.707 1.414-1.414-1.414-1.414z" fill="currentColor"/>
</svg>
