<svg width="16" height="16" version="1.1" xmlns="http://www.w3.org/2000/svg">
<defs>
<style id="current-color-scheme" type="text/css">.ColorScheme-Text { color:#444444; } .ColorScheme-Highlight { color:#4285f4; } .ColorScheme-NeutralText { color:#ff9800; } .ColorScheme-PositiveText { color:#4caf50; } .ColorScheme-NegativeText { color:#f44336; }</style>
</defs>
<path class="ColorScheme-Text" d="m1.375 1c-0.20775 0-0.375 0.16725-0.375 0.375v2.25c0 0.20775 0.16725 0.375 0.375 0.375h2.25c0.20775 0 0.375-0.16725 0.375-0.375v-2.25c0-0.20775-0.16725-0.375-0.375-0.375h-2.25zm3.625 1v2h10v-2h-10zm-3.625 3c-0.20775 0-0.375 0.16725-0.375 0.375v2.25c0 0.20775 0.16725 0.375 0.375 0.375h2.25c0.20775 0 0.375-0.16725 0.375-0.375v-2.25c0-0.20775-0.16725-0.375-0.375-0.375h-2.25zm3.625 1v2h10v-2h-10zm-3.625 3c-0.20775 0-0.375 0.16725-0.375 0.375v2.25c0 0.20775 0.16725 0.375 0.375 0.375h2.25c0.20775 0 0.375-0.16725 0.375-0.375v-2.25c0-0.20775-0.16725-0.375-0.375-0.375h-2.25zm3.625 1v2h5v-2h-5zm7 1a1 1 0 0 0-1 1 1 1 0 0 0 1 1 1 1 0 0 0 1-1 1 1 0 0 0-1-1zm2 0.054688v1.0332a1.5 1.5 0 0 1 1 1.4121 1.5 1.5 0 0 1-1 1.4121v1.0371a2.5 2.5 0 0 0 2-2.4492 2.5 2.5 0 0 0-2-2.4453zm-12.625 1.9453c-0.20775 0-0.375 0.16725-0.375 0.375v2.25c0 0.20775 0.16725 0.375 0.375 0.375h2.25c0.20775 0 0.375-0.16725 0.375-0.375v-2.25c0-0.20775-0.16725-0.375-0.375-0.375h-2.25zm3.625 1v2h5v-2h-5zm7 0a1 1 0 0 0-1 1 1 1 0 0 0 1 1 1 1 0 0 0 1-1 1 1 0 0 0-1-1z" fill="#dfdfdf"/>
</svg>
