<svg width="16" height="16" version="1.1" xmlns="http://www.w3.org/2000/svg">
<defs>
<style id="current-color-scheme" type="text/css">.ColorScheme-Text { color:#444444; } .ColorScheme-Highlight { color:#4285f4; } .ColorScheme-NeutralText { color:#ff9800; } .ColorScheme-PositiveText { color:#4caf50; } .ColorScheme-NegativeText { color:#f44336; }</style>
<style type="text/css">.ColorScheme-Text { color:#444444; } .ColorScheme-Highlight { color:#4285f4; } .ColorScheme-NeutralText { color:#ff9800; } .ColorScheme-PositiveText { color:#4caf50; } .ColorScheme-NegativeText { color:#f44336; }</style>
</defs>
<path class="ColorScheme-Text" d="m8 1-8 4h2v2h1v6h-1v2h8v-2h-1v-6h2v3h2v-3h1v-2h2l-8-4zm-3 6h2v6h-2v-6zm9.9805 4.0039c-0.041852 0.00837-0.086218 0.031534-0.13086 0.076172l-0.63476 0.63477 1.0703 1.0703 0.63477-0.63476c0.17857-0.17857 0-0.35742 0-0.35742l-0.71289-0.71289s-0.10101-0.10128-0.22656-0.076172zm-1.123 1.0684-2.8574 2.8555v1.0723h1.0723l2.8555-2.8574-1.0703-1.0703z" fill="#dfdfdf"/>
</svg>
