<svg width="16" height="16" version="1.1" xmlns="http://www.w3.org/2000/svg">
<defs>
<style id="current-color-scheme" type="text/css">.ColorScheme-Text { color:#444444; } .ColorScheme-Highlight { color:#4285f4; } .ColorScheme-NeutralText { color:#ff9800; } .ColorScheme-PositiveText { color:#4caf50; } .ColorScheme-NegativeText { color:#f44336; }</style>
</defs>
<path class="ColorScheme-Text" d="m0 3v10h16v-10zm3 1h10v1h1v1h1v4h-1v1h-1v1h-10v-1h-1v-1h-1v-4h1v-1h1zm1 1v1h-1v1h-1v2h1v1h1v1h8v-1h1v-1h1v-2h-1v-1h-1v-1zm4 1c1.1046 0 2 0.89543 2 2s-0.89543 2-2 2c-1.1046 0-2-0.89543-2-2s0.89543-2 2-2zm-0.025391 1c-0.54234 0.013775-0.97478 0.45748-0.97461 1 0 0.55228 0.44772 1 1 1s1-0.44772 1-1-0.44772-1-1-1c-0.00814-1e-4 -0.017251-1e-4 -0.025391 0z" fill="#dfdfdf"/>
</svg>
