<svg width="16" height="16" version="1.1" xmlns="http://www.w3.org/2000/svg">
<defs>
<style id="current-color-scheme" type="text/css">.ColorScheme-Text { color:#444444; } .ColorScheme-Highlight { color:#4285f4; } .ColorScheme-NeutralText { color:#ff9800; } .ColorScheme-PositiveText { color:#4caf50; } .ColorScheme-NegativeText { color:#f44336; }</style>
</defs>
<path class="ColorScheme-Text" d="m7.5 2c-1.3807 0-2.5 1.1193-2.5 2.5 0.0013743 0.16808 0.019696 0.3356 0.054688 0.5h4.8945c0.033679-0.16454 0.050692-0.33205 0.050781-0.5 0-1.3807-1.1193-2.5-2.5-2.5zm5.5 2c-1.1046 0-2 0.89543-2 2h-4c-1.8225 0.0017696-3.4135 1.2353-3.8691 3h-1.0391c-0.83066-0.0092859-1.0497-0.35871-1.0859-0.58594-0.01818-0.11386 0.010504-0.20913 0.072266-0.28125s0.16093-0.13876 0.38086-0.14062c0.67463 0.00268 0.6667-1.0132-0.00781-1-0.46176 0.00392-0.87363 0.18756-1.1328 0.49023-0.25919 0.30267-0.36218 0.70531-0.30078 1.0898 0.1228 0.76907 0.90547 1.4168 2.0703 1.4277 0.0013 5.1e-6 0.0026 5.1e-6 0.00391 0h0.9082c0.00177 1.8225 1.2353 3.4135 3 3.8691v1.1309h2v-1h2v1h2v-1.1328c1.0365-0.26822 1.9223-0.94079 2.459-1.8672h1.541v-3h-1.1328c-0.26822-1.0365-0.94079-1.9223-1.8672-2.459v-2.541z" fill="#dfdfdf" opacity=".3"/>
</svg>
