<svg width="16" height="16" version="1.1" xmlns="http://www.w3.org/2000/svg">
<defs>
<style id="current-color-scheme" type="text/css">.ColorScheme-Text { color:#444444; } .ColorScheme-Highlight { color:#4285f4; } .ColorScheme-NeutralText { color:#ff9800; } .ColorScheme-PositiveText { color:#4caf50; } .ColorScheme-NegativeText { color:#f44336; }</style>
</defs>
<path class="ColorScheme-Text" d="m3 0c-0.554 0-1 0.446-1 1v6h11c1.0907 0 2 0.9093 2 2v1h1v-9c0-0.554-0.446-1-1-1h-12zm1 2h7v1h-7v-1zm8 0h2v1h-2v-1zm-8 2h4v1h-4v-1zm-3 4c-0.554 0-1 0.446-1 1v6c0 0.554 0.446 1 1 1h9v-6h4v-1c0-0.554-0.446-1-1-1h-12zm13.98 3.0039c-0.041857 0.00837-0.086212 0.031534-0.13086 0.076172l-0.63476 0.63477 1.0703 1.0703 0.63477-0.63476c0.17859-0.17857 0-0.35742 0-0.35742l-0.71289-0.71289s-0.10099-0.10128-0.22656-0.076172zm-1.123 1.0684-2.8574 2.8555v1.0723h1.0723l2.8555-2.8574-1.0703-1.0703zm-12.857 1.9277h1v1h-1v-1zm2 0h1v1h-1v-1zm2 0h1v1h-1v-1zm2 0h1v1h-1v-1z" fill="#dfdfdf"/>
</svg>
