<svg width="16" height="16" version="1.1" xmlns="http://www.w3.org/2000/svg">
<defs>
<style id="current-color-scheme" type="text/css">.ColorScheme-Text { color:#444444; } .ColorScheme-Highlight { color:#4285f4; } .ColorScheme-NeutralText { color:#ff9800; } .ColorScheme-PositiveText { color:#4caf50; } .ColorScheme-NegativeText { color:#f44336; }</style>
</defs>
<path class="ColorScheme-Text" d="m0 1v4h1v-1h1v-1h1v-1h10v1h1v1h1v1h1v-4h-16zm4 2v1h-1v1h3.2773c0.34637-0.59563 0.984-1 1.7227-1 0.73866 0 1.3763 0.40437 1.7227 1h3.2773v-1h-1v-1h-8zm-4 3v4h1v-1h1v-1h1v-1h10v1h1v1h1v1h1v-4h-16zm4 2v1h-1v1h3.2773c0.34637-0.59563 0.984-1 1.7227-1 0.73866 0 1.3763 0.40437 1.7227 1h3.2773v-1h-1v-1h-8zm-4 3v4h1v-1h1v-1h1v-1h10v1h1v1h1v1h1v-4h-16zm4 2v1h-1v1h3.2773c0.34637-0.59563 0.984-1 1.7227-1 0.73866 0 1.3763 0.40437 1.7227 1h3.2773v-1h-1v-1h-8z" fill="#dfdfdf"/>
</svg>
