<svg width="16" height="16" version="1.1" xmlns="http://www.w3.org/2000/svg">
<defs>
<style id="current-color-scheme" type="text/css">.ColorScheme-Text { color:#444444; } .ColorScheme-Highlight { color:#4285f4; } .ColorScheme-NeutralText { color:#ff9800; } .ColorScheme-PositiveText { color:#4caf50; } .ColorScheme-NegativeText { color:#f44336; }</style>
</defs>
<path class="ColorScheme-Text" d="m3 0c-0.554 0-1 0.446-1 1v6h11c1.0907 0 2 0.9093 2 2v6c0 0.36397-0.10774 0.70348-0.2832 1h0.2832c0.554 0 1-0.446 1-1v-14c0-0.554-0.446-1-1-1h-12zm1 2h7v1h-7v-1zm8 0h2v1h-2v-1zm-8 2h4v1h-4v-1zm-3 4c-0.554 0-1 0.446-1 1v6c0 0.554 0.446 1 1 1h12c0.554 0 1-0.446 1-1v-6c0-0.554-0.446-1-1-1h-12zm2.9668 1.5391c0.11873 0.001798 0.2364 0.023517 0.34961 0.068359 0.45286 0.1794 0.70734 0.63173 0.77344 1.1387 0.032481 0.24911-0.0046184 0.45618-0.037109 0.62695-0.014177 0.07451-0.018388 0.080482-0.03125 0.13281 0.005795-4e-4 0.021578-0.001646 0.017578 0.001953-0.00453 0.00409 0.15411-0.21657 0.30664-0.43359 0.07627-0.10851 0.15955-0.22084 0.2793-0.33008s0.30485-0.2436 0.57227-0.23242c0.2201 0.0092 0.32582 0.10144 0.40625 0.16602s0.13771 0.1275 0.19531 0.19141c0.1152 0.12783 0.22362 0.26261 0.32422 0.36719 0.083759 0.087072 0.1093 0.14019 0.20898 0.11133 0.094386-0.082452 0.1286-0.1248 0.16016-0.17578 0.08702-0.10971 0.16448-0.25718 0.27734-0.34961 0.12933-0.07691 0.39517-0.073763 0.51562-0.007813s0.15331 0.12073 0.18164 0.1582c0.056661 0.07493 0.075275 0.11557 0.10938 0.17578 0.06819 0.12041 0.16677 0.29725 0.34961 0.57812 0.15167 0.2318 0.085975 0.54272-0.14648 0.69336-0.2318 0.15167-0.54272 0.085974-0.69336-0.14648-0.05553-0.085302-0.063892-0.1052-0.10742-0.17578-0.04205 0.03886-0.050089 0.070575-0.099609 0.10938-0.26141 0.20481-0.65321 0.23577-0.91016 0.13477-0.25696-0.101-0.42267-0.26267-0.56641-0.41211-0.10141-0.10543-0.17138-0.19031-0.24414-0.27539-0.1153 0.16584-0.26295 0.73463-1.1523 0.8457s-0.9998-0.51742-1.0039-0.95703c0.020768-0.10858 0.031735-0.24273 0.068359-0.35742 0.023277-0.12233 0.033347-0.27749 0.029297-0.30859-0.03459-0.2653-0.1351-0.33374-0.15039-0.33984-0.01529-0.00606-0.070439-0.041806-0.25586 0.15234-0.12991 0.13604-0.24932 0.34953-0.39453 0.60352-0.1033 0.25399-0.27636 0.51937-0.30469 0.81641-0.06022 0.2698-0.39435 0.45126-0.66406 0.39062-0.2698-0.06022-0.37313-0.33966-0.3125-0.60938l0.089844-0.39844 0.021484-0.048829c0.0815-0.1765 0.16128-0.40248 0.30078-0.64648 0.1339-0.2342 0.28255-0.52819 0.54102-0.79883 0.27513-0.28809 0.63991-0.46437 0.99609-0.45898zm-1.9609 3.4609h7v1h-7v-1zm8 0h2v1h-2v-1z" fill="#dfdfdf" opacity=".3"/>
</svg>
