<svg width="16" height="16" version="1.1" xmlns="http://www.w3.org/2000/svg">
<defs>
<style id="current-color-scheme" type="text/css">.ColorScheme-Text { color:#444444; } .ColorScheme-Highlight { color:#4285f4; } .ColorScheme-NeutralText { color:#ff9800; } .ColorScheme-PositiveText { color:#4caf50; } .ColorScheme-NegativeText { color:#f44336; }</style>
</defs>
<path class="ColorScheme-Text" d="m3 0c-0.554 0-1 0.446-1 1v6h11c1.0907 0 2 0.9093 2 2v1h1v-9c0-0.554-0.446-1-1-1zm1 2h7v1h-7zm8 0h2v1h-2zm-8 2h4v1h-4zm-3 4c-0.554 0-1 0.446-1 1v6c0 0.554 0.446 1 1 1h9v-6h4v-1c0-0.554-0.446-1-1-1zm13 4v1h-3v1h3v1l2-1.5zm-13 2h1v1h-1zm2 0h1v1h-1zm2 0h1v1h-1zm2 0h1v1h-1z" fill="#dfdfdf"/>
</svg>
