<svg width="16" height="16" version="1.1" xmlns="http://www.w3.org/2000/svg">
<defs>
<style id="current-color-scheme" type="text/css">.ColorScheme-Text { color:#444444; } .ColorScheme-Highlight { color:#4285f4; } .ColorScheme-NeutralText { color:#ff9800; } .ColorScheme-PositiveText { color:#4caf50; } .ColorScheme-NegativeText { color:#f44336; }</style>
</defs>
<path class="ColorScheme-Text" d="m1 2v13h13v-3.1328l-0.041016-0.039063-2.8281-2.8281-0.003906 0.0039062-0.005859-0.0039062-2.123 2.123-3.123-3.123h-2.875v-6zm8 0-4.002 4.002h-1.9961v1h2.4102l3.5898-3.5898 2.123 2.123 0.0059-0.00391 0.0039 0.00391 2.8281-2.8281c0.002932 0.0050003-0.70707-0.70703-0.70707-0.70703l-2.125 2.125-2.127-2.125-0.00195 0.00195zm-6 7h2.4609l3.5352 3.5352 0.00195-2e-3 0.00195 2e-3 2.127-2.125 2.125 2.125 0.48243 0.46484h-10.734z" fill="#dfdfdf" opacity=".3"/>
</svg>
