<svg width="16" height="16" version="1.1" xmlns="http://www.w3.org/2000/svg">
<defs>
<style id="current-color-scheme" type="text/css">.ColorScheme-Text { color:#444444; } .ColorScheme-Highlight { color:#4285f4; } .ColorScheme-NeutralText { color:#ff9800; } .ColorScheme-PositiveText { color:#4caf50; } .ColorScheme-NegativeText { color:#f44336; }</style>
</defs>
<path class="ColorScheme-Text" d="m1.375 1c-0.20775 0-0.375 0.16725-0.375 0.375v2.25c0 0.20775 0.16725 0.375 0.375 0.375h2.25c0.20775 0 0.375-0.16725 0.375-0.375v-2.25c0-0.20775-0.16725-0.375-0.375-0.375zm3.625 1v2h10v-2zm-3.625 3c-0.20775 0-0.375 0.16725-0.375 0.375v2.25c0 0.20775 0.16725 0.375 0.375 0.375h2.25c0.20775 0 0.375-0.16725 0.375-0.375v-2.25c0-0.20775-0.16725-0.375-0.375-0.375zm3.625 1v2h10v-2zm-3.625 3c-0.20775 0-0.375 0.16725-0.375 0.375v2.25c0 0.20775 0.16725 0.375 0.375 0.375h2.25c0.20775 0 0.375-0.16725 0.375-0.375v-2.25c0-0.20775-0.16725-0.375-0.375-0.375zm3.625 1v2h5v-2zm8 1v2h-2v1h2v2h1v-2h2v-1h-2v-2zm-11.625 2c-0.20775 0-0.375 0.16725-0.375 0.375v2.25c0 0.20775 0.16725 0.375 0.375 0.375h2.25c0.20775 0 0.375-0.16725 0.375-0.375v-2.25c0-0.20775-0.16725-0.375-0.375-0.375zm3.625 1v2h5v-2z" fill="#dfdfdf"/>
</svg>
