<svg width="16" height="16" version="1.1" xmlns="http://www.w3.org/2000/svg">
<g fill="#dfdfdf">
<path d="m6.22 9-2.22 4h8l-2.22-4z" opacity=".3"/>
<path d="m5.9844 0.98633a1.0001 1.0001 0 0 0-0.9844 1.0137v2.7402c-0.1179 0.2069-0.9395 1.6454-1.8828 3.4141-0.5044 0.9456-1.0086 1.9237-1.3965 2.7477-0.1939 0.412-0.358 0.785-0.4824 1.112-0.1244 0.326-0.2383 0.528-0.2383 0.986 0 0-0.01379 0.709 0.3555 1.447 0.3692 0.739 1.3112 1.553 2.6445 1.553h8c1.333 0 2.275-0.814 2.645-1.553 0.369-0.738 0.355-1.447 0.355-1.447 0-0.458-0.114-0.66-0.238-0.986-0.125-0.327-0.289-0.7-0.483-1.112-0.388-0.824-0.892-1.8021-1.396-2.7477-0.944-1.7687-1.765-3.2072-1.883-3.4141v-2.7402a1.0001 1.0001 0 1 0-2 0v3a1.0001 1.0001 0 0 0 0.1309 0.4961s0.9951 1.7409 1.9861 3.5996c0.496 0.9293 0.992 1.8883 1.354 2.6583 0.181 0.385 0.329 0.723 0.424 0.971 0.094 0.247 0.105 0.483 0.105 0.275 0 0-0.014 0.291-0.145 0.553-0.13 0.261-0.188 0.447-0.855 0.447h-8c-0.6667 0-0.7247-0.186-0.8555-0.447-0.1307-0.262-0.1445-0.553-0.1445-0.553 0 0.208 0.0111-0.028 0.1055-0.275 0.0943-0.248 0.2427-0.586 0.4238-0.971 0.3621-0.77 0.8579-1.729 1.3535-2.6583 0.9913-1.8587 1.9863-3.5996 1.9863-3.5996a1.0001 1.0001 0 0 0 0.1309-0.4961v-3a1.0001 1.0001 0 0 0-1.0156-1.0137z"/>
<path d="m5 0h6c0.554 0 1 0.446 1 1s-0.446 1-1 1h-6c-0.554 0-1-0.446-1-1s0.446-1 1-1z"/>
</g>
</svg>
