<svg width="16" height="16" version="1.1" xmlns="http://www.w3.org/2000/svg">
<path d="m12.236 1.994c-0.241 0.0012-0.463 0.0768-0.672 0.2246-0.527 0.3763-1.6253 0.7797-3.564 0.7813-1.9387 0-3.0373-0.405-3.5645-0.7813-0.2083-0.1478-0.408-0.2198-0.6503-0.2187-0.2424 1e-3 -0.5218 0.0659-0.8067 0.2187-1.0374 0.5465-1.991 2.3361-2.5098 4.6563-0.44216 1.9709-0.6054 4.6661-0.3418 5.7501 0.22958 0.932 0.62629 1.344 1.332 1.344 1.0459-0.018 2.36-1.183 3.1933-2.75 0.6027-0.868 2.0006-1.2628 3.3477-1.2191 1.347-0.047 2.745 0.3511 3.348 1.2191 0.833 1.567 2.147 2.732 3.193 2.75 0.706 0 1.102-0.412 1.332-1.344 0.264-1.084 0.1-3.7792-0.342-5.7501-0.518-2.3202-1.472-4.1098-2.51-4.6563-0.284-0.1522-0.544-0.2257-0.785-0.2246zm-8.2028 3.0059h0.9922v1h0.9902v1h-0.9902v1h-0.9922v-1h-0.9922v-1h0.9922zm7.4378 0c0.274 0 0.496 0.2239 0.496 0.5 0 0.2762-0.222 0.5-0.496 0.5s-0.494-0.2238-0.494-0.5c0-0.2761 0.22-0.5 0.494-0.5zm-0.991 1c0.274 0 0.497 0.2239 0.497 0.5 0 0.2762-0.223 0.5-0.497 0.5-0.273 0-0.4956-0.2238-0.4956-0.5 0-0.2761 0.2226-0.5 0.4956-0.5zm1.983 0c0.274 0 0.496 0.2239 0.496 0.5 0 0.2762-0.222 0.5-0.496 0.5s-0.496-0.2238-0.496-0.5c0-0.2761 0.222-0.5 0.496-0.5zm-0.992 1c0.274 0 0.496 0.2239 0.496 0.5 0 0.2762-0.222 0.5-0.496 0.5s-0.494-0.2238-0.494-0.5c0-0.2761 0.22-0.5 0.494-0.5z" fill="#dfdfdf"/>
</svg>
