<svg width="16" height="16" version="1.1" xmlns="http://www.w3.org/2000/svg">
<g fill="#dfdfdf">
<path d="m11.62 0.11988c0.39-0.1 0.79-0.11 1.17-0.08l-1.36 2.3c-0.28 0.48-0.13 1.07 0.35 1.35l0.87 0.51c0.48 0.28 1.08 0.12 1.36-0.35l1.36-2.31c0.21 0.31 0.4 0.67 0.5 1.05 0.49 1.86-0.63 3.75-2.49 4.24-0.39 0.1-0.79 0.11-1.17 0.08l-0.81 1.0901-3.41-1e-4s1.52-2.58 1.63-2.59c-0.21-0.32-0.4-0.67-0.5-1.06-0.49-1.85 0.63-3.75 2.5-4.23z"/>
<path d="m3.6 0.71988c-0.23 0.05-0.45 0.13-0.66 0.22-0.02 0.62002 0.09 1.44-0.16 1.65-0.23 0.21-1.03 0.04-1.65-0.03-0.13002 0.24-0.23 0.49-0.31 0.75 0.48 0.4 1.14 0.84 1.15 1.16 0.02 0.32-0.62 0.8-1.06 1.25 0.11 0.26 0.25 0.49 0.41 0.72 0.61-0.13 1.36-0.38 1.62-0.19s0.27 1.01 0.34 1.62c0.25 0.08 0.52 0.11 0.78 0.13 0.28-0.55 0.57-1.32 0.88-1.41 0.31-0.08 0.96 0.46 1.5 0.78 0.21-0.15 0.41-0.33 0.59-0.53-0.26-0.57-0.72-1.29-0.59-1.59 0.12-0.3 0.97-0.47 1.56-0.69 0-0.07 0.03-0.14 0.03-0.22 0-0.19-0.04-0.38-0.07-0.56-0.6-0.16-1.46-0.24-1.62-0.53s0.24-1.06 0.44-1.66c-0.2-0.17-0.42-0.33-0.66-0.47-0.5 0.38-1.08 1-1.4 0.94-0.32-0.05-0.66-0.82-1-1.34-0.04 0.01-0.08-0.01-0.12 0zm0.62 1.87c0.93 0 1.68 0.76 1.68 1.69s-0.75 1.69-1.68 1.69-1.69-0.76-1.69-1.69 0.76-1.69 1.69-1.69z"/>
<path d="m3 9h10v6c0 0.06 0 1-1 1h-8c-1 0-1-1-1-1z"/>
<path d="m2.5859 9-2.2929 2.293a1.0001 1.0001 0 1 0 1.414 1.414l1.7071-1.707h9.1719l1.707 1.707a1.0001 1.0001 0 1 0 1.414-1.414l-2.293-2.293z"/>
</g>
</svg>
