<svg width="16" height="16" version="1.1" xmlns="http://www.w3.org/2000/svg">
<path d="m6.25 1-0.15 1.84a5.5 5.5 0 0 0-1.61 0.93l-1.68-0.79-1.75 3.04 1.52 1.05a5.5 5.5 0 0 0-0.08 0.93 5.5 5.5 0 0 0 0.08 0.93l-1.52 1.05 1.75 3.04 1.67-0.79a5.5 5.5 0 0 0 1.62 0.92l0.15 1.85h3.5l0.15-1.84a5.5 5.5 0 0 0 1.61-0.93l1.68 0.79 1.75-3.04-1.52-1.05a5.5 5.5 0 0 0 0.08-0.93 5.5 5.5 0 0 0-0.08-0.93l1.52-1.05-1.75-3.04-1.67 0.79a5.5 5.5 0 0 0-1.62-0.92l-0.15-1.85zm1.75 5a2 2 0 0 1 2 2 2 2 0 0 1-2 2 2 2 0 0 1-2-2 2 2 0 0 1 2-2z" fill="#dfdfdf"/>
</svg>
