<svg width="16" height="16" version="1.1" xmlns="http://www.w3.org/2000/svg">
<path d="m8 1a7 7 0 0 0-7 7 7 7 0 0 0 7 7 7 7 0 0 0 7-7 7 7 0 0 0-7-7zm0 3c2.21 0 4 1.79 4 4v0.5c0 0.83-0.67 1.5-1.5 1.5-0.44 0-0.8604-0.1991-1.1504-0.5391-0.35 0.33-0.8296 0.5391-1.3496 0.5391-1.1 0-2-0.9-2-2s0.9-2 2-2 2 0.9 2 2v0.5c0 0.28 0.22 0.5 0.5 0.5s0.5-0.22 0.5-0.5v-0.5c0-1.66-1.34-3-3-3s-3 1.34-3 3 1.34 3 3 3h2.5s0.5 0 0.5 0.5c-0.03 0.5-0.5 0.5-0.5 0.5h-2.5c-2.21 0-4-1.79-4-4s1.79-4 4-4zm0 3c-0.55 0-1 0.45-1 1s0.45 1 1 1 1-0.45 1-1-0.45-1-1-1z" fill="#dfdfdf"/>
</svg>
